# xmcd
#
# Track frame offsets:
#	150
#	24380
#	45427
#	55747
#	70587
#	89457
#	104230
#	125935
#	148995
#	169735
#	189430
#	204880
#	220510
#	240300
#	259412
#	275237
#	296495
#	320347
#
# Disc length: 4474 seconds
#
# Revision: 4
# Processed by: cddbd v1.5.2PL0 Copyright (c) Steve Scherf et al.
# Submitted via: audiograbber 1.83.01
#
DISCID=13117812
DTITLE=Cole, Natalie - Stardust
DYEAR=1996
DGENRE=Soul
TTITLE0=There's a lull in my life
TTITLE1=Stardust
TTITLE2=Let's face the music and dance
TTITLE3=Teach me tonight
TTITLE4=When I fall in love
TTITLE5=What a difference a day made
TTITLE6=Love letters
TTITLE7=He was too good to me
TTITLE8=Dindi (Portuguese)
TTITLE9=Two for the blues
TTITLE10=If love ain't there
TTITLE11=To whom it may concern
TTITLE12=Where can I go without you
TTITLE13=Ahmad's blues
TTITLE14=Pick yourself up
TTITLE15=If you could see me now
TTITLE16=Like a lover
TTITLE17=This morning it was summer
EXTD=
EXTT0=
EXTT1=
EXTT2=
EXTT3=
EXTT4=Duet With Nat King Cole\n
EXTT5=
EXTT6=
EXTT7=
EXTT8=
EXTT9=
EXTT10=
EXTT11=
EXTT12=
EXTT13=
EXTT14=
EXTT15=
EXTT16=
EXTT17=
PLAYORDER=
